<svg width="121" height="209" viewBox="0 0 121 209" fill="none" xmlns="http://www.w3.org/2000/svg">
<path d="M115.519 4.59309C118.46 7.53493 120.112 11.5244 120.112 15.6841C120.112 19.8439 118.46 23.8334 115.519 26.7752L37.8663 104.428L115.519 182.081C118.377 185.04 119.958 189.003 119.922 193.116C119.887 197.229 118.237 201.164 115.328 204.073C112.42 206.981 108.485 208.631 104.372 208.667C100.259 208.702 96.296 207.121 93.3373 204.264L4.59309 115.519C1.65213 112.578 0 108.588 0 104.428C0 100.269 1.65213 96.2791 4.59309 93.3373L93.3373 4.59309C96.2791 1.65214 100.269 0 104.428 0C108.588 0 112.578 1.65214 115.519 4.59309Z" fill="#38B6FF"/>
</svg>
