<svg width="251" height="211" viewBox="0 0 251 211" fill="none" xmlns="http://www.w3.org/2000/svg">
<path d="M251 61.575C246.817 27.0625 218.579 0.916656 183.021 0.916656C165.242 0.916656 147.462 8.23749 134.912 20.7875C127.592 28.1083 122.362 35.4292 119.225 44.8417L177.792 83.5375V84.5833H209.167V105.5H177.792V126.417H209.167V147.333H177.792V168.25H209.167V189.167H177.792V210.083H251V61.575ZM139.096 53.2083C145.371 34.3833 163.15 21.8333 183.021 21.8333C202.892 21.8333 220.671 34.3833 226.946 53.2083H139.096ZM0 95.0417V210.083H52.2917V136.875H104.583V210.083H156.875V95.0417L78.4375 42.75L0 95.0417Z" fill="white"/>
</svg>
