<svg width="121" height="209" viewBox="0 0 121 209" fill="none" xmlns="http://www.w3.org/2000/svg">
<path d="M5.03395 4.66474C2.09299 7.60658 0.440857 11.596 0.440857 15.7558C0.440857 19.9156 2.09299 23.905 5.03395 26.8469L82.6871 104.5L5.03395 182.153C2.17634 185.112 0.595123 189.075 0.630866 193.188C0.666609 197.301 2.31645 201.236 5.22504 204.144C8.13363 207.053 12.0682 208.703 16.1815 208.738C20.2947 208.774 24.2574 207.193 27.2161 204.335L115.96 115.591C118.901 112.649 120.553 108.66 120.553 104.5C120.553 100.34 118.901 96.3508 115.96 93.4089L27.2161 4.66474C24.2742 1.72379 20.2848 0.0716553 16.125 0.0716553C11.9652 0.0716553 7.97579 1.72379 5.03395 4.66474Z" fill="#2C946C"/>
</svg>
