<svg width="121" height="209" viewBox="0 0 121 209" fill="none" xmlns="http://www.w3.org/2000/svg">
<path d="M115.966 4.66474C118.907 7.60658 120.559 11.596 120.559 15.7558C120.559 19.9156 118.907 23.905 115.966 26.8469L38.3129 104.5L115.966 182.153C118.824 185.112 120.405 189.075 120.369 193.188C120.333 197.301 118.684 201.236 115.775 204.144C112.866 207.053 108.932 208.703 104.819 208.738C100.705 208.774 96.7426 207.193 93.7839 204.335L5.03974 115.591C2.09879 112.649 0.446655 108.66 0.446655 104.5C0.446655 100.34 2.09879 96.3508 5.03974 93.4089L93.7839 4.66474C96.7258 1.72379 100.715 0.0716553 104.875 0.0716553C109.035 0.0716553 113.024 1.72379 115.966 4.66474Z" fill="#2C946C"/>
</svg>
