<svg width="54" height="54" viewBox="0 0 54 54" fill="none" xmlns="http://www.w3.org/2000/svg">
<path d="M27 3H16.3333C8.96955 3 3 8.96955 3 16.3333V37.6667C3 45.0304 8.96955 51 16.3333 51H37.6667C45.0304 51 51 45.0304 51 37.6667V16.3333C51 8.96955 45.0304 3 37.6667 3H27Z" stroke="white" stroke-width="5.33333" stroke-linecap="round" stroke-linejoin="round"/>
<path d="M27 16.3334C32.8911 16.3334 37.6667 21.109 37.6667 27C37.6667 32.8911 32.8911 37.6667 27 37.6667C21.109 37.6667 16.3334 32.891 16.3334 27C16.3334 21.109 21.109 16.3334 27 16.3334Z" stroke="white" stroke-width="5.33333" stroke-linecap="round" stroke-linejoin="round"/>
<path d="M40.3334 17.6666C42.5425 17.6666 44.3334 15.8758 44.3334 13.6666C44.3334 11.4575 42.5425 9.66663 40.3334 9.66663C38.1242 9.66663 36.3334 11.4575 36.3334 13.6666C36.3334 15.8758 38.1242 17.6666 40.3334 17.6666Z" fill="white"/>
</svg>
