<svg width="211" height="211" viewBox="0 0 211 211" fill="none" xmlns="http://www.w3.org/2000/svg">
<path d="M116.251 0.916626C128.017 0.948001 133.989 1.01075 139.144 1.15717L141.173 1.23038C143.516 1.31404 145.827 1.41863 148.62 1.54413C159.747 2.06704 167.34 3.82404 174.002 6.40725C180.905 9.06367 186.719 12.6613 192.534 18.4657C197.852 23.6938 201.967 30.0179 204.593 36.9979C207.176 43.6598 208.933 51.2526 209.456 62.3907C209.581 65.1726 209.686 67.4839 209.77 69.8371L209.832 71.866C209.989 77.0115 210.052 82.9832 210.073 94.7488L210.083 102.551V116.251C210.109 123.879 210.029 131.508 209.843 139.134L209.78 141.163C209.696 143.516 209.592 145.827 209.466 148.609C208.943 159.747 207.165 167.33 204.593 174.002C201.975 180.986 197.859 187.312 192.534 192.534C187.305 197.85 180.981 201.965 174.002 204.593C167.34 207.176 159.747 208.933 148.62 209.456C146.138 209.573 143.656 209.677 141.173 209.77L139.144 209.832C133.989 209.979 128.017 210.052 116.251 210.073L108.449 210.083H94.7593C87.1274 210.11 79.4956 210.029 71.866 209.843L69.8371 209.78C67.3544 209.686 64.8722 209.578 62.3908 209.456C51.2631 208.933 43.6703 207.176 36.9979 204.593C30.0188 201.972 23.6972 197.856 18.4762 192.534C13.1534 187.308 9.03469 180.984 6.4073 174.002C3.8241 167.34 2.06709 159.747 1.54418 148.609C1.42766 146.128 1.32308 143.645 1.23043 141.163L1.17814 139.134C0.985413 131.508 0.898251 123.88 0.916679 116.251V94.7488C0.88749 87.1205 0.964193 79.4921 1.14676 71.866L1.21997 69.8371C1.30364 67.4839 1.40822 65.1726 1.53372 62.3907C2.05664 51.2526 3.81364 43.6703 6.39684 36.9979C9.02308 30.0107 13.15 23.6847 18.4867 18.4657C23.7063 13.1474 30.0237 9.03216 36.9979 6.40725C43.6703 3.82404 51.2526 2.06704 62.3908 1.54413C65.1727 1.41863 67.4944 1.31404 69.8371 1.23038L71.866 1.16763C79.4921 0.98181 87.1205 0.901621 94.7488 0.927084L116.251 0.916626ZM105.5 53.2083C91.6314 53.2083 78.3308 58.7176 68.5242 68.5242C58.7176 78.3308 53.2083 91.6314 53.2083 105.5C53.2083 119.369 58.7176 132.669 68.5242 142.476C78.3308 152.282 91.6314 157.792 105.5 157.792C119.369 157.792 132.669 152.282 142.476 142.476C152.282 132.669 157.792 119.369 157.792 105.5C157.792 91.6314 152.282 78.3308 142.476 68.5242C132.669 58.7176 119.369 53.2083 105.5 53.2083ZM105.5 74.125C109.62 74.1243 113.7 74.9351 117.507 76.5112C121.314 78.0874 124.773 80.3978 127.687 83.3108C130.601 86.2238 132.913 89.6821 134.49 93.4884C136.067 97.2948 136.88 101.375 136.88 105.495C136.881 109.615 136.07 113.695 134.494 117.502C132.918 121.309 130.607 124.768 127.694 127.682C124.781 130.596 121.323 132.907 117.517 134.485C113.71 136.062 109.631 136.874 105.51 136.875C97.1893 136.875 89.2089 133.569 83.325 127.685C77.441 121.801 74.1355 113.821 74.1355 105.5C74.1355 97.1788 77.441 89.1984 83.325 83.3145C89.2089 77.4305 97.1893 74.125 105.51 74.125M160.417 37.5208C156.95 37.5208 153.624 38.8981 151.173 41.3498C148.721 43.8014 147.344 47.1266 147.344 50.5937C147.344 54.0609 148.721 57.386 151.173 59.8377C153.624 62.2893 156.95 63.6666 160.417 63.6666C163.884 63.6666 167.209 62.2893 169.661 59.8377C172.112 57.386 173.49 54.0609 173.49 50.5937C173.49 47.1266 172.112 43.8014 169.661 41.3498C167.209 38.8981 163.884 37.5208 160.417 37.5208Z" fill="white"/>
</svg>
