<svg width="40" height="40" viewBox="0 0 40 40" fill="none" xmlns="http://www.w3.org/2000/svg">
<rect width="40" height="40" rx="8" fill="white"/>
<g clip-path="url(#clip0_322_218)">
<path d="M8.62542 8.76891C6.58225 10.8912 7.00042 13.1456 7.00042 19.9944C7.00042 25.6819 6.00809 31.3835 11.2016 32.7257C12.8233 33.1428 27.1927 33.1428 28.8123 32.7236C30.9746 32.1657 32.7339 30.4117 32.9744 27.3535C33.008 26.9267 33.008 13.0697 32.9733 12.6342C32.7177 9.37666 30.7124 7.49924 28.0702 7.11899C27.4646 7.03124 27.3433 7.00524 24.2363 6.99983C13.2155 7.00524 10.7997 6.51449 8.62542 8.76891Z" fill="#2C946C"/>
<path d="M19.9977 10.4006C16.0641 10.4006 12.3288 10.0507 10.902 13.7124C10.3127 15.2247 10.3983 17.1888 10.3983 20.0011C10.3983 22.469 10.3192 24.7884 10.902 26.2888C12.3255 29.9526 16.0912 29.6016 19.9955 29.6016C23.7623 29.6016 27.646 29.9938 29.0901 26.2888C29.6805 24.7613 29.5938 22.8265 29.5938 20.0011C29.5938 16.2506 29.8008 13.8294 27.9818 12.0115C26.1402 10.1699 23.6496 10.4006 19.9933 10.4006H19.9977ZM19.1375 12.1307C27.3427 12.1177 28.387 11.2055 27.8107 23.8773C27.6059 28.359 24.1934 27.8672 19.9988 27.8672C12.3504 27.8672 12.1305 27.6484 12.1305 19.9968C12.1305 12.2564 12.7372 12.135 19.1375 12.1285V12.1307ZM25.1218 13.7243C24.4859 13.7243 23.9703 14.24 23.9703 14.8759C23.9703 15.5118 24.4859 16.0275 25.1218 16.0275C25.7578 16.0275 26.2734 15.5118 26.2734 14.8759C26.2734 14.24 25.7578 13.7243 25.1218 13.7243ZM19.9977 15.0709C17.2753 15.0709 15.0685 17.2787 15.0685 20.0011C15.0685 22.7235 17.2753 24.9303 19.9977 24.9303C22.7201 24.9303 24.9258 22.7235 24.9258 20.0011C24.9258 17.2787 22.7201 15.0709 19.9977 15.0709ZM19.9977 16.801C24.2281 16.801 24.2335 23.2013 19.9977 23.2013C15.7683 23.2013 15.7618 16.801 19.9977 16.801Z" fill="white"/>
</g>
<defs>
<clipPath id="clip0_322_218">
<rect width="26" height="26" fill="white" transform="translate(7 7)"/>
</clipPath>
</defs>
</svg>
