<svg width="211" height="211" viewBox="0 0 211 211" fill="none" xmlns="http://www.w3.org/2000/svg">
<path d="M61.575 0.916626H149.425C182.892 0.916626 210.083 28.1083 210.083 61.575V149.425C210.083 165.513 203.693 180.941 192.317 192.317C180.941 203.693 165.513 210.083 149.425 210.083H61.575C28.1083 210.083 0.916626 182.892 0.916626 149.425V61.575C0.916626 45.4874 7.3074 30.0587 18.683 18.683C30.0587 7.3074 45.4874 0.916626 61.575 0.916626ZM59.4833 21.8333C49.4979 21.8333 39.9215 25.8 32.8607 32.8607C25.8 39.9215 21.8333 49.4979 21.8333 59.4833V151.517C21.8333 172.329 38.6712 189.167 59.4833 189.167H151.517C161.502 189.167 171.078 185.2 178.139 178.139C185.2 171.078 189.167 161.502 189.167 151.517V59.4833C189.167 38.6712 172.329 21.8333 151.517 21.8333H59.4833ZM160.406 37.5208C163.873 37.5208 167.199 38.8981 169.65 41.3498C172.102 43.8014 173.479 47.1266 173.479 50.5937C173.479 54.0609 172.102 57.386 169.65 59.8377C167.199 62.2893 163.873 63.6666 160.406 63.6666C156.939 63.6666 153.614 62.2893 151.162 59.8377C148.711 57.386 147.333 54.0609 147.333 50.5937C147.333 47.1266 148.711 43.8014 151.162 41.3498C153.614 38.8981 156.939 37.5208 160.406 37.5208ZM105.5 53.2083C119.369 53.2083 132.669 58.7176 142.476 68.5242C152.282 78.3308 157.792 91.6313 157.792 105.5C157.792 119.369 152.282 132.669 142.476 142.476C132.669 152.282 119.369 157.792 105.5 157.792C91.6313 157.792 78.3308 152.282 68.5242 142.476C58.7176 132.669 53.2083 119.369 53.2083 105.5C53.2083 91.6313 58.7176 78.3308 68.5242 68.5242C78.3308 58.7176 91.6313 53.2083 105.5 53.2083ZM105.5 74.125C97.1788 74.125 89.1984 77.4305 83.3145 83.3145C77.4305 89.1984 74.125 97.1788 74.125 105.5C74.125 113.821 77.4305 121.801 83.3145 127.685C89.1984 133.569 97.1788 136.875 105.5 136.875C113.821 136.875 121.801 133.569 127.685 127.685C133.569 121.801 136.875 113.821 136.875 105.5C136.875 97.1788 133.569 89.1984 127.685 83.3145C121.801 77.4305 113.821 74.125 105.5 74.125Z" fill="white"/>
</svg>
