<svg width="205" height="205" viewBox="0 0 205 205" fill="none" xmlns="http://www.w3.org/2000/svg">
<path d="M102.5 0.53125C82.3325 0.53125 62.6179 6.51161 45.8492 17.7161C29.0805 28.9206 16.0109 44.8459 8.29314 63.4782C0.57537 82.1106 -1.44395 102.613 2.49054 122.393C6.42502 142.173 16.1366 160.342 30.3972 174.603C44.6578 188.863 62.8269 198.575 82.6069 202.509C102.387 206.444 122.889 204.425 141.522 196.707C160.154 188.989 176.079 175.919 187.284 159.151C198.488 142.382 204.469 122.668 204.469 102.5C204.44 75.465 193.688 49.5454 174.571 30.4287C155.455 11.3121 129.535 0.559799 102.5 0.53125ZM141.719 110.344H82.2141L100.206 128.326C100.934 129.054 101.513 129.919 101.907 130.872C102.301 131.824 102.504 132.844 102.504 133.875C102.504 134.906 102.301 135.926 101.907 136.878C101.513 137.831 100.934 138.696 100.206 139.424C99.4769 140.153 98.6118 140.731 97.6596 141.126C96.7074 141.52 95.6869 141.723 94.6562 141.723C93.6256 141.723 92.6051 141.52 91.6529 141.126C90.7007 140.731 89.8355 140.153 89.1068 139.424L57.7318 108.049C57.0025 107.321 56.424 106.456 56.0292 105.504C55.6345 104.551 55.4313 103.531 55.4313 102.5C55.4313 101.469 55.6345 100.449 56.0292 99.4963C56.424 98.5441 57.0025 97.679 57.7318 96.9505L89.1068 65.5755C90.5786 64.1037 92.5748 63.2769 94.6562 63.2769C96.7377 63.2769 98.7339 64.1037 100.206 65.5755C101.677 67.0473 102.504 69.0436 102.504 71.125C102.504 73.2064 101.677 75.2027 100.206 76.6745L82.2141 94.6562H141.719C143.799 94.6562 145.794 95.4826 147.265 96.9536C148.736 98.4246 149.562 100.42 149.562 102.5C149.562 104.58 148.736 106.575 147.265 108.046C145.794 109.517 143.799 110.344 141.719 110.344Z" fill="#2C946C"/>
</svg>
