<svg width="201" height="201" viewBox="0 0 201 201" fill="none" xmlns="http://www.w3.org/2000/svg">
<path d="M90.0417 37.75H121.417L155.825 3.23751C156.797 2.25727 157.954 1.47923 159.228 0.94827C160.502 0.417314 161.869 0.143951 163.25 0.143951C164.631 0.143951 165.998 0.417314 167.272 0.94827C168.546 1.47923 169.703 2.25727 170.675 3.23751L197.658 30.3246C199.606 32.2841 200.699 34.9348 200.699 37.6977C200.699 40.4607 199.606 43.1113 197.658 45.0708L173.708 69.125H90.0417V90.0417C90.0417 92.8154 88.9398 95.4755 86.9785 97.4368C85.0172 99.3981 82.3571 100.5 79.5834 100.5C76.8096 100.5 74.1495 99.3981 72.1882 97.4368C70.2269 95.4755 69.125 92.8154 69.125 90.0417V58.6667C69.125 53.1192 71.3287 47.799 75.2514 43.8764C79.174 39.9537 84.4942 37.75 90.0417 37.75ZM27.2917 90.0417V131.875L3.34211 155.825C1.39424 157.784 0.300903 160.435 0.300903 163.198C0.300903 165.961 1.39424 168.611 3.34211 170.571L30.3246 197.658C31.2968 198.638 32.4535 199.416 33.728 199.947C35.0024 200.478 36.3694 200.751 37.75 200.751C39.1306 200.751 40.4976 200.478 41.7721 199.947C43.0465 199.416 44.2032 198.638 45.1754 197.658L90.0417 152.792H131.875C134.649 152.792 137.309 151.69 139.27 149.729C141.231 147.767 142.333 145.107 142.333 142.333V131.875H152.792C155.565 131.875 158.226 130.773 160.187 128.812C162.148 126.851 163.25 124.19 163.25 121.417V110.958H173.708C176.482 110.958 179.142 109.856 181.104 107.895C183.065 105.934 184.167 103.274 184.167 100.5V90.0417H110.958V100.5C110.958 106.047 108.755 111.368 104.832 115.29C100.909 119.213 95.5891 121.417 90.0417 121.417H69.125C63.5776 121.417 58.2573 119.213 54.3347 115.29C50.4121 111.368 48.2084 106.047 48.2084 100.5V69.125L27.2917 90.0417Z" fill="white"/>
</svg>
