<svg width="205" height="205" viewBox="0 0 205 205" fill="none" xmlns="http://www.w3.org/2000/svg">
<path d="M102.5 0.53125C82.3325 0.53125 62.6179 6.51161 45.8492 17.7161C29.0805 28.9206 16.0109 44.8459 8.29314 63.4782C0.57537 82.1106 -1.44395 102.613 2.49054 122.393C6.42502 142.173 16.1366 160.342 30.3972 174.603C44.6578 188.863 62.8269 198.575 82.6069 202.509C102.387 206.444 122.889 204.425 141.522 196.707C160.154 188.989 176.079 175.919 187.284 159.151C198.488 142.382 204.469 122.668 204.469 102.5C204.44 75.465 193.688 49.5454 174.571 30.4287C155.455 11.3121 129.535 0.559799 102.5 0.53125ZM147.268 108.049L115.893 139.424C114.421 140.896 112.425 141.723 110.344 141.723C108.262 141.723 106.266 140.896 104.794 139.424C103.322 137.953 102.496 135.956 102.496 133.875C102.496 131.794 103.322 129.797 104.794 128.326L122.786 110.344H63.2812C61.2009 110.344 59.2059 109.517 57.7349 108.046C56.2639 106.575 55.4375 104.58 55.4375 102.5C55.4375 100.42 56.2639 98.4246 57.7349 96.9536C59.2059 95.4826 61.2009 94.6562 63.2812 94.6562H122.786L104.794 76.6745C103.322 75.2027 102.496 73.2064 102.496 71.125C102.496 69.0436 103.322 67.0473 104.794 65.5755C106.266 64.1037 108.262 63.2769 110.344 63.2769C112.425 63.2769 114.421 64.1037 115.893 65.5755L147.268 96.9505C147.997 97.679 148.576 98.5441 148.971 99.4963C149.365 100.449 149.569 101.469 149.569 102.5C149.569 103.531 149.365 104.551 148.971 105.504C148.576 106.456 147.997 107.321 147.268 108.049Z" fill="#2C946C"/>
</svg>
