<svg width="231" height="190" viewBox="0 0 231 190" fill="none" xmlns="http://www.w3.org/2000/svg">
<path d="M115.5 74.125L78.8957 37.5208L115.5 0.916656L152.104 37.5208L115.5 74.125ZM0.458252 189.167V147.333C0.458252 141.407 2.50809 136.439 6.60775 132.43C10.7074 128.421 15.6298 126.417 21.3749 126.417H55.626C59.1121 126.417 62.4239 127.288 65.5614 129.031C68.6989 130.774 71.2263 133.127 73.1437 136.091C78.1985 142.889 84.4317 148.205 91.8432 152.04C99.2546 155.874 107.14 157.792 115.5 157.792C124.041 157.792 132.017 155.874 139.429 152.04C146.84 148.205 152.983 142.889 157.856 136.091C160.122 133.127 162.782 130.774 165.836 129.031C168.89 127.288 172.069 126.417 175.374 126.417H209.625C215.551 126.417 220.519 128.421 224.528 132.43C228.537 136.439 230.542 141.407 230.542 147.333V189.167H157.333V165.374C151.233 169.732 144.651 173.043 137.588 175.309C130.525 177.575 123.162 178.708 115.5 178.708C108.005 178.708 100.684 177.533 93.5374 175.184C86.3909 172.834 79.7673 169.477 73.6666 165.112V189.167H0.458252ZM31.8333 115.958C23.118 115.958 15.71 112.908 9.60929 106.807C3.5086 100.707 0.458252 93.2986 0.458252 84.5833C0.458252 75.6937 3.5086 68.2439 9.60929 62.2339C15.71 56.2238 23.118 53.2153 31.8333 53.2083C40.7228 53.2083 48.1761 56.2168 54.1932 62.2339C60.2102 68.2509 63.2152 75.7007 63.2083 84.5833C63.2083 93.2986 60.2032 100.707 54.1932 106.807C48.1831 112.908 40.7298 115.958 31.8333 115.958ZM199.167 115.958C190.451 115.958 183.043 112.908 176.943 106.807C170.842 100.707 167.792 93.2986 167.792 84.5833C167.792 75.6937 170.842 68.2439 176.943 62.2339C183.043 56.2238 190.451 53.2153 199.167 53.2083C208.056 53.2083 215.509 56.2168 221.527 62.2339C227.544 68.2509 230.549 75.7007 230.542 84.5833C230.542 93.2986 227.537 100.707 221.527 106.807C215.516 112.908 208.063 115.958 199.167 115.958Z" fill="white"/>
</svg>
