<svg width="229" height="177" viewBox="0 0 229 177" fill="none" xmlns="http://www.w3.org/2000/svg">
<path d="M228.234 133.984H193.8L186.398 176.85L162.484 133.984H71.8496V109.472H164.994V32.5054H228.234V133.984ZM157.15 0.149963V101.628H66.5208L42.6022 144.509L35.1948 101.628H0.765625V0.149963H157.15ZM56.0268 68.5592C56.0268 63.5887 50.018 61.1008 46.504 64.6148C42.99 68.1288 45.4779 74.1381 50.4484 74.1381C53.5296 74.1381 56.0273 71.6404 56.0273 68.5592H56.0268ZM85.9041 68.5592C85.8708 63.5981 79.8644 61.1459 76.3681 64.6653C72.8722 68.1852 75.3646 74.1753 80.3258 74.1753C83.4211 74.1753 85.9247 71.6551 85.9041 68.5592ZM115.781 68.5592C115.781 63.5887 109.773 61.1008 106.259 64.6148C102.745 68.1288 105.233 74.1381 110.203 74.1381C113.284 74.1381 115.781 71.6404 115.781 68.5592Z" fill="#2C946C"/>
</svg>
