<svg width="189" height="189" viewBox="0 0 189 189" fill="none" xmlns="http://www.w3.org/2000/svg">
<path fill-rule="evenodd" clip-rule="evenodd" d="M17.4378 0.375C15.4611 0.375 13.6989 1.74504 13.0191 3.80533L0.950209 40.467C0.569136 41.6264 0.374972 42.839 0.375 44.0595V58.6436C0.375 66.89 6.39377 73.5833 13.8192 73.5833C21.2446 73.5833 27.2686 66.89 27.2686 58.6436C27.2686 66.8952 33.2874 73.5833 40.7128 73.5833C48.1382 73.5833 54.1622 66.89 54.1622 58.6436C54.1622 66.8952 60.181 73.5833 67.6064 73.5833C75.0318 73.5833 81.0454 66.9005 81.0558 58.6541C81.0558 66.9005 87.0746 73.5833 94.5 73.5833C101.925 73.5833 107.944 66.89 107.944 58.6436C107.944 66.8952 113.968 73.5833 121.394 73.5833C128.819 73.5833 134.833 66.9005 134.838 58.6541C134.843 66.9005 140.862 73.5833 148.287 73.5833C155.713 73.5833 161.731 66.89 161.731 58.6436C161.731 66.8952 167.75 73.5833 175.181 73.5833C182.606 73.5833 188.625 66.89 188.625 58.6436V44.0595C188.625 42.839 188.431 41.6264 188.05 40.467L175.981 3.81056C175.301 1.74504 173.539 0.375 171.562 0.375H17.4378Z" fill="#2C946C"/>
<path fill-rule="evenodd" clip-rule="evenodd" d="M21.2917 80.0152V120.646H8.21877C7.52534 120.646 6.86031 120.921 6.36998 121.412C5.87965 121.902 5.60419 122.567 5.60419 123.26V128.49C5.60419 129.183 5.87965 129.848 6.36998 130.338C6.86031 130.829 7.52534 131.104 8.21877 131.104H180.781C181.475 131.104 182.14 130.829 182.63 130.338C183.12 129.848 183.396 129.183 183.396 128.49V123.26C183.396 122.567 183.12 121.902 182.63 121.412C182.14 120.921 181.475 120.646 180.781 120.646H167.708V80.0152C165.519 79.1443 163.496 77.9006 161.731 76.3391C160.374 77.5325 158.868 78.5449 157.25 79.3511V120.646H31.75V79.3511C30.1324 78.5449 28.626 77.5325 27.2686 76.3391C25.5116 77.8817 23.5036 79.1367 21.2917 80.0152ZM157.25 69.7817C157.693 69.339 158.111 68.8631 158.505 68.3541H157.25V69.7817ZM164.958 68.3541C165.751 69.3763 166.676 70.2889 167.708 71.0681V68.3541H164.958ZM21.2917 71.0681C22.3331 70.299 23.2593 69.3851 24.0422 68.3541H21.2917V71.0681ZM30.495 68.3541H31.75V69.7817C31.3032 69.3316 30.8841 68.8549 30.495 68.3541ZM13.4479 141.562C12.7545 141.562 12.0895 141.838 11.5991 142.328C11.1088 142.819 10.8334 143.484 10.8334 144.177V183.396C10.8334 184.783 11.3843 186.113 12.3649 187.093C13.3456 188.074 14.6757 188.625 16.0625 188.625H172.938C174.324 188.625 175.654 188.074 176.635 187.093C177.616 186.113 178.167 184.783 178.167 183.396V144.177C178.167 143.484 177.891 142.819 177.401 142.328C176.911 141.838 176.246 141.562 175.552 141.562H13.4479Z" fill="#2C946C"/>
<path d="M42.2083 107.573C42.2083 106.879 42.4838 106.214 42.9741 105.724C43.4644 105.234 44.1295 104.958 44.8229 104.958H60.5104C61.2038 104.958 61.8689 105.234 62.3592 105.724C62.8495 106.214 63.125 106.879 63.125 107.573V118.031C63.125 118.725 62.8495 119.39 62.3592 119.88C61.8689 120.37 61.2038 120.646 60.5104 120.646H44.8229C44.1295 120.646 43.4644 120.37 42.9741 119.88C42.4838 119.39 42.2083 118.725 42.2083 118.031V107.573Z" fill="#2C946C"/>
<path d="M52.6667 112.802C52.6667 112.109 52.9421 111.444 53.4325 110.953C53.9228 110.463 54.5878 110.187 55.2813 110.187H70.9688C71.6622 110.187 72.3272 110.463 72.8176 110.953C73.3079 111.444 73.5834 112.109 73.5834 112.802V118.031C73.5834 118.725 73.3079 119.39 72.8176 119.88C72.3272 120.37 71.6622 120.646 70.9688 120.646H55.2813C54.5878 120.646 53.9228 120.37 53.4325 119.88C52.9421 119.39 52.6667 118.725 52.6667 118.031V112.802ZM94.5 112.802C94.5 114.882 93.6736 116.877 92.2026 118.348C90.7316 119.819 88.7366 120.646 86.6563 120.646C84.576 120.646 82.5809 119.819 81.1099 118.348C79.6389 116.877 78.8125 114.882 78.8125 112.802C78.8125 110.722 79.6389 108.727 81.1099 107.256C82.5809 105.785 84.576 104.958 86.6563 104.958C88.7366 104.958 90.7316 105.785 92.2026 107.256C93.6736 108.727 94.5 110.722 94.5 112.802Z" fill="#2C946C"/>
</svg>
