<svg width="220" height="220" viewBox="0 0 220 220" fill="none" xmlns="http://www.w3.org/2000/svg">
<path d="M75.625 130.776C76.67 143.894 87.0375 154.11 105.628 155.32V165H113.877V155.251C133.127 153.904 144.375 143.619 144.375 128.686C144.375 115.115 135.768 108.116 120.381 104.486L113.877 102.946V76.5875C122.127 77.5225 127.38 82.0325 128.645 88.275H143.11C142.065 75.6388 131.23 65.7525 113.877 64.68V55H105.628V64.8862C89.1963 66.495 77.99 76.3813 77.99 90.365C77.99 102.74 86.3225 110.605 100.169 113.836L105.628 115.184V143.151C97.1713 141.873 91.575 137.239 90.31 130.776H75.625ZM105.559 100.994C97.4463 99.11 93.0463 95.2737 93.0463 89.4987C93.0463 83.0362 97.79 78.1963 105.628 76.78V100.98L105.559 100.994ZM115.074 117.398C124.933 119.68 129.484 123.379 129.484 129.91C129.484 137.362 123.819 142.478 113.877 143.413V117.122L115.074 117.398Z" fill="#2C946C"/>
<path d="M110 206.25C84.4729 206.25 59.9913 196.109 41.941 178.059C23.8906 160.009 13.75 135.527 13.75 110C13.75 84.4729 23.8906 59.9913 41.941 41.941C59.9913 23.8906 84.4729 13.75 110 13.75C135.527 13.75 160.009 23.8906 178.059 41.941C196.109 59.9913 206.25 84.4729 206.25 110C206.25 135.527 196.109 160.009 178.059 178.059C160.009 196.109 135.527 206.25 110 206.25ZM110 220C139.174 220 167.153 208.411 187.782 187.782C208.411 167.153 220 139.174 220 110C220 80.8262 208.411 52.8473 187.782 32.2183C167.153 11.5893 139.174 0 110 0C80.8262 0 52.8473 11.5893 32.2183 32.2183C11.5893 52.8473 0 80.8262 0 110C0 139.174 11.5893 167.153 32.2183 187.782C52.8473 208.411 80.8262 220 110 220Z" fill="#2C946C"/>
<path d="M110 185.625C89.943 185.625 70.7075 177.657 56.5251 163.475C42.3426 149.293 34.375 130.057 34.375 110C34.375 89.943 42.3426 70.7075 56.5251 56.5251C70.7075 42.3426 89.943 34.375 110 34.375C130.057 34.375 149.293 42.3426 163.475 56.5251C177.657 70.7075 185.625 89.943 185.625 110C185.625 130.057 177.657 149.293 163.475 163.475C149.293 177.657 130.057 185.625 110 185.625ZM110 192.5C120.834 192.5 131.562 190.366 141.571 186.22C151.581 182.074 160.675 175.997 168.336 168.336C175.997 160.675 182.074 151.581 186.22 141.571C190.366 131.562 192.5 120.834 192.5 110C192.5 99.1659 190.366 88.438 186.22 78.4286C182.074 68.4193 175.997 59.3245 168.336 51.6637C160.675 44.0029 151.581 37.926 141.571 33.7799C131.562 29.6339 120.834 27.5 110 27.5C88.1196 27.5 67.1354 36.1919 51.6637 51.6637C36.1919 67.1354 27.5 88.1196 27.5 110C27.5 131.88 36.1919 152.865 51.6637 168.336C67.1354 183.808 88.1196 192.5 110 192.5Z" fill="#2C946C"/>
</svg>
