<svg width="214" height="214" viewBox="0 0 214 214" fill="none" xmlns="http://www.w3.org/2000/svg">
<path d="M107 0C126.412 0 144.315 4.78342 160.709 14.3503C177.103 23.9171 190.083 36.8974 199.65 53.291C209.217 69.6847 214 87.5877 214 107C214 126.412 209.217 144.315 199.65 160.709C190.083 177.103 177.103 190.083 160.709 199.65C144.315 209.217 126.412 214 107 214C87.5877 214 69.6847 209.217 53.291 199.65C36.8974 190.083 23.9171 177.103 14.3503 160.709C4.78342 144.315 0 126.412 0 107C0 87.5877 4.78342 69.6847 14.3503 53.291C23.9171 36.8974 36.8974 23.9171 53.291 14.3503C69.6847 4.78342 87.5877 0 107 0ZM145.174 72.5872C144.989 72.6801 144.548 73.1213 143.851 73.9108C143.154 74.7003 142.527 75.1415 141.97 75.2344C142.156 75.2344 142.365 75.0022 142.597 74.5378C142.829 74.0734 143.061 73.5625 143.294 73.0052C143.526 72.4479 143.688 72.1228 143.781 72.03C144.339 71.3798 145.36 70.6832 146.846 69.9401C148.147 69.3828 150.562 68.8255 154.091 68.2682C157.249 67.5252 159.618 68.036 161.197 69.8008C161.011 69.615 161.452 69.0113 162.52 67.9896C163.588 66.9679 164.262 66.4106 164.54 66.3177C164.819 66.1319 165.516 65.923 166.63 65.6908C167.745 65.4586 168.441 65.1102 168.72 64.6458L168.999 61.5807C167.884 61.6736 167.071 61.3485 166.561 60.6055C166.05 59.8624 165.748 58.8872 165.655 57.6797C165.655 57.8655 165.376 58.237 164.819 58.7943C164.819 58.1441 164.61 57.7726 164.192 57.6797C163.774 57.5868 163.24 57.6332 162.59 57.819C161.94 58.0048 161.522 58.0512 161.336 57.9583C160.407 57.6797 159.711 57.3314 159.246 56.9134C158.782 56.4954 158.41 55.7292 158.132 54.6146C157.853 53.5 157.667 52.8034 157.574 52.5247C157.388 52.0603 156.947 51.5495 156.251 50.9922C155.554 50.4349 155.113 49.9705 154.927 49.599C154.834 49.4132 154.718 49.1578 154.579 48.8327C154.439 48.5076 154.3 48.2057 154.161 47.9271C154.021 47.6484 153.836 47.393 153.604 47.1608C153.371 46.9286 153.116 46.8125 152.837 46.8125C152.559 46.8125 152.234 47.0447 151.862 47.5091C151.49 47.9735 151.142 48.4379 150.817 48.9023C150.492 49.3668 150.283 49.599 150.19 49.599C149.911 49.4132 149.633 49.3435 149.354 49.39C149.076 49.4364 148.867 49.4829 148.727 49.5293C148.588 49.5757 148.379 49.7151 148.1 49.9473C147.822 50.1795 147.589 50.342 147.404 50.4349C147.125 50.6207 146.73 50.76 146.219 50.8529C145.709 50.9457 145.314 51.0386 145.035 51.1315C146.428 50.6671 146.382 50.1563 144.896 49.599C143.967 49.2274 143.224 49.0881 142.667 49.181C143.503 48.8095 143.851 48.2522 143.712 47.5091C143.572 46.7661 143.178 46.1159 142.527 45.5586H143.224C143.131 45.1871 142.736 44.7923 142.04 44.3744C141.343 43.9564 140.53 43.5616 139.602 43.1901C138.673 42.8186 138.069 42.5399 137.79 42.3542C137.047 41.8898 135.468 41.4486 133.053 41.0306C130.638 40.6126 129.106 40.5894 128.456 40.9609C127.991 41.5182 127.782 42.0059 127.829 42.4238C127.875 42.8418 128.061 43.492 128.386 44.3744C128.711 45.2567 128.874 45.8372 128.874 46.1159C128.967 46.6732 128.711 47.2769 128.107 47.9271C127.504 48.5773 127.202 49.1346 127.202 49.599C127.202 50.2491 127.852 50.969 129.152 51.7585C130.453 52.548 130.917 53.5464 130.546 54.7539C130.267 55.497 129.524 56.24 128.316 56.9831C127.109 57.7261 126.366 58.2834 126.087 58.655C125.623 59.398 125.553 60.2572 125.878 61.2324C126.203 62.2077 126.691 62.974 127.341 63.5313C127.527 63.717 127.597 63.9028 127.55 64.0885C127.504 64.2743 127.341 64.4833 127.063 64.7155C126.784 64.9477 126.528 65.1335 126.296 65.2728C126.064 65.4121 125.762 65.5747 125.391 65.7604L124.973 66.0391C123.951 66.5035 122.999 66.2248 122.117 65.2031C121.234 64.1814 120.607 62.974 120.236 61.5807C119.586 59.2587 118.842 57.8655 118.007 57.401C115.87 56.658 114.523 56.7044 113.966 57.5404C113.502 56.3329 111.598 55.1254 108.254 53.918C105.932 53.082 103.238 52.8963 100.173 53.3607C100.73 53.2678 100.73 52.5712 100.173 51.2708C99.523 49.8776 98.6406 49.3203 97.526 49.599C97.8047 49.0417 97.9905 48.229 98.0833 47.1608C98.1762 46.0927 98.2227 45.4657 98.2227 45.2799C98.5013 44.0725 99.0586 43.0043 99.8945 42.0755C99.9874 41.9826 100.313 41.5879 100.87 40.8913C101.427 40.1947 101.868 39.5677 102.193 39.0104C102.518 38.4531 102.542 38.1745 102.263 38.1745C105.514 38.546 107.836 38.0352 109.229 36.6419C109.694 36.1775 110.228 35.388 110.831 34.2734C111.435 33.1589 111.923 32.3694 112.294 31.9049C113.13 31.3477 113.78 31.0922 114.245 31.1387C114.709 31.1851 115.383 31.4405 116.265 31.9049C117.147 32.3694 117.821 32.6016 118.285 32.6016C119.586 32.6944 120.305 32.1836 120.445 31.069C120.584 29.9544 120.236 29.0256 119.4 28.2826C120.514 28.3754 120.654 27.5859 119.818 25.9141C119.446 25.2639 119.075 24.8459 118.703 24.6602C117.589 24.2886 116.335 24.5208 114.941 25.3568C114.198 25.7283 114.291 26.0998 115.22 26.4714C115.127 26.3785 114.686 26.8661 113.896 27.9342C113.107 29.0024 112.341 29.8151 111.598 30.3724C110.855 30.9297 110.112 30.6975 109.368 29.6758C109.276 29.5829 109.02 28.9559 108.602 27.7949C108.184 26.6339 107.743 26.0069 107.279 25.9141C106.536 25.9141 105.793 26.6107 105.049 28.0039C105.328 27.2609 104.817 26.5642 103.517 25.9141C102.217 25.2639 101.102 24.8924 100.173 24.7995C101.938 23.6849 101.566 22.431 99.0586 21.0378C98.4084 20.6662 97.4564 20.434 96.2025 20.3411C94.9486 20.2483 94.043 20.434 93.4857 20.8984C93.0213 21.5486 92.7658 22.0827 92.7194 22.5007C92.673 22.9186 92.9052 23.2901 93.416 23.6152C93.9269 23.9403 94.4145 24.1957 94.8789 24.3815C95.3433 24.5673 95.8774 24.753 96.4811 24.9388C97.0849 25.1246 97.4796 25.2639 97.6654 25.3568C98.9657 26.2856 99.3372 26.9358 98.78 27.3073C98.5942 27.4002 98.1994 27.5627 97.5957 27.7949C96.992 28.0271 96.4579 28.2361 95.9935 28.4219C95.5291 28.6076 95.2504 28.7934 95.1576 28.9792C94.8789 29.3507 94.8789 30.0009 95.1576 30.9297C95.4362 31.8585 95.3433 32.5087 94.8789 32.8802C94.4145 32.4158 93.9965 31.6031 93.625 30.4421C93.2535 29.281 92.9284 28.5148 92.6497 28.1432C93.2999 28.9792 92.1389 29.2578 89.1667 28.9792L87.7734 28.8398C87.4019 28.8398 86.6589 28.9327 85.5443 29.1185C84.4297 29.3043 83.4777 29.3507 82.6882 29.2578C81.8987 29.1649 81.2717 28.7934 80.8073 28.1432C80.4358 27.4002 80.4358 26.4714 80.8073 25.3568C80.9002 24.9852 81.0859 24.8924 81.3646 25.0781C80.9931 24.7995 80.4822 24.3583 79.832 23.7546C79.1819 23.1508 78.7175 22.7561 78.4388 22.5703C74.1662 23.9635 69.8008 25.8676 65.3425 28.2826C65.8997 28.3754 66.457 28.329 67.0143 28.1432C67.4787 27.9575 68.0825 27.6556 68.8255 27.2376C69.5686 26.8197 70.033 26.5642 70.2188 26.4714C73.3767 25.171 75.3273 24.8459 76.0703 25.4961L76.7669 24.7995C78.0673 26.2856 78.9961 27.4466 79.5534 28.2826C78.9032 27.911 77.51 27.8646 75.3737 28.1432C73.5161 28.7005 72.4944 29.2578 72.3086 29.8151C72.9588 30.9297 73.191 31.7656 73.0052 32.3229C72.6337 32.0443 72.0996 31.5799 71.403 30.9297C70.7064 30.2795 70.033 29.7687 69.3828 29.3971C68.7326 29.0256 68.036 28.7934 67.293 28.7005C65.8069 28.7005 64.7852 28.747 64.2279 28.8398C50.6671 36.2704 39.7535 46.5803 31.487 59.7695C32.1372 60.4197 32.6944 60.7912 33.1589 60.8841C33.5304 60.977 33.7626 61.395 33.8555 62.138C33.9484 62.8811 34.0645 63.3919 34.2038 63.6706C34.3431 63.9492 34.8772 63.8099 35.806 63.2526C36.6419 63.9957 36.7813 64.878 36.224 65.8997C36.3168 65.8069 38.3602 67.0608 42.3542 69.6615C44.1189 71.2405 45.0942 72.2157 45.2799 72.5872C45.5586 73.6089 45.0942 74.4449 43.8867 75.0951C43.7938 74.9093 43.3759 74.4913 42.6328 73.8411C41.8898 73.191 41.4718 73.0052 41.3789 73.2839C41.1003 73.7483 41.1235 74.6074 41.4486 75.8613C41.7737 77.1152 42.2613 77.6957 42.9115 77.6029C42.2613 77.6029 41.8201 78.3459 41.5879 79.832C41.3557 81.3181 41.2396 82.9668 41.2396 84.778C41.2396 86.5892 41.1931 87.6806 41.1003 88.0521L41.3789 88.1914C41.1003 89.306 41.3557 90.9082 42.1452 92.9981C42.9347 95.0879 43.9332 95.9935 45.1406 95.7148C43.9332 95.9935 44.862 97.9905 47.9271 101.706C48.4844 102.449 48.8559 102.867 49.0417 102.96C49.3203 103.145 49.8776 103.494 50.7135 104.005C51.5495 104.515 52.2461 104.98 52.8034 105.398C53.3607 105.816 53.8251 106.303 54.1966 106.861C54.5681 107.325 55.0326 108.37 55.5898 109.995C56.1471 111.621 56.7973 112.712 57.5404 113.27C57.3546 113.827 57.7958 114.756 58.8639 116.056C59.9321 117.356 60.4197 118.424 60.3268 119.26C60.2339 119.26 60.1178 119.307 59.9785 119.4C59.8392 119.493 59.7231 119.539 59.6302 119.539C59.9089 120.189 60.6287 120.839 61.7897 121.49C62.9507 122.14 63.6706 122.743 63.9492 123.301C64.0421 123.579 64.135 124.044 64.2279 124.694C64.3207 125.344 64.4601 125.855 64.6458 126.227C64.8316 126.598 65.2031 126.691 65.7604 126.505C65.9462 124.648 64.8316 121.768 62.4167 117.867C61.0234 115.545 60.2339 114.198 60.0482 113.827C59.7695 113.362 59.5141 112.643 59.2819 111.667C59.0497 110.692 58.8407 110.019 58.655 109.647C58.8407 109.647 59.1194 109.717 59.4909 109.856C59.8624 109.995 60.2572 110.158 60.6751 110.344C61.0931 110.53 61.4414 110.715 61.7201 110.901C61.9987 111.087 62.0916 111.226 61.9987 111.319C61.7201 111.969 61.8129 112.782 62.2773 113.757C62.7418 114.732 63.299 115.592 63.9492 116.335C64.5994 117.078 65.3889 117.96 66.3177 118.982C67.2465 120.003 67.8038 120.607 67.9896 120.793C68.5469 121.35 69.1971 122.256 69.9401 123.51C70.6832 124.764 70.6832 125.391 69.9401 125.391C70.776 125.391 71.7049 125.878 72.7266 126.854C73.7483 127.829 74.5378 128.734 75.0951 129.57C75.5595 130.313 75.931 131.521 76.2096 133.193C76.4883 134.865 76.7205 135.979 76.9063 136.536C77.092 137.187 77.4868 137.814 78.0905 138.417C78.6942 139.021 79.2747 139.462 79.832 139.741L82.0612 140.855L83.8724 141.831C84.3368 142.016 85.196 142.504 86.4499 143.294C87.7038 144.083 88.7023 144.617 89.4453 144.896C90.3741 145.267 91.1172 145.453 91.6745 145.453C92.2318 145.453 92.9052 145.337 93.6947 145.105C94.4842 144.873 95.1111 144.71 95.5755 144.617C96.9688 144.431 98.3155 145.128 99.6159 146.707C100.916 148.286 101.891 149.261 102.542 149.633C105.885 151.398 108.44 151.908 110.204 151.165C110.019 151.258 110.042 151.607 110.274 152.21C110.506 152.814 110.878 153.534 111.389 154.37C111.9 155.206 112.317 155.879 112.643 156.39C112.968 156.901 113.223 157.296 113.409 157.574C113.873 158.132 114.709 158.828 115.917 159.664C117.124 160.5 117.96 161.197 118.424 161.754C118.982 161.382 119.307 160.964 119.4 160.5C119.121 161.243 119.446 162.172 120.375 163.286C121.304 164.401 122.14 164.865 122.883 164.68C124.183 164.401 124.833 162.915 124.833 160.221C121.954 161.615 119.678 160.779 118.007 157.714C118.007 157.621 117.89 157.365 117.658 156.947C117.426 156.529 117.24 156.135 117.101 155.763C116.962 155.391 116.845 154.997 116.753 154.579C116.66 154.161 116.66 153.813 116.753 153.534C116.845 153.255 117.078 153.116 117.449 153.116C118.285 153.116 118.75 152.953 118.842 152.628C118.935 152.303 118.842 151.723 118.564 150.887C118.285 150.051 118.099 149.447 118.007 149.076C117.914 148.332 117.403 147.404 116.474 146.289C115.545 145.174 114.988 144.478 114.802 144.199C114.338 145.035 113.595 145.407 112.573 145.314C111.551 145.221 110.808 144.803 110.344 144.06C110.344 144.153 110.274 144.408 110.135 144.826C109.995 145.244 109.926 145.546 109.926 145.732C108.718 145.732 108.022 145.685 107.836 145.592C107.929 145.314 108.045 144.501 108.184 143.154C108.324 141.808 108.486 140.763 108.672 140.02C108.765 139.648 109.02 139.091 109.438 138.348C109.856 137.605 110.204 136.931 110.483 136.327C110.762 135.724 110.947 135.143 111.04 134.586C111.133 134.029 110.924 133.587 110.413 133.262C109.903 132.937 109.09 132.821 107.975 132.914C106.211 133.007 105.003 133.936 104.353 135.701C104.26 135.979 104.121 136.467 103.935 137.163C103.749 137.86 103.517 138.394 103.238 138.766C102.96 139.137 102.542 139.462 101.984 139.741C101.334 140.02 100.22 140.112 98.6406 140.02C97.0616 139.927 95.9471 139.694 95.2969 139.323C94.0894 138.58 93.0445 137.233 92.1621 135.283C91.2797 133.332 90.8385 131.614 90.8385 130.128C90.8385 129.199 90.9546 127.968 91.1869 126.436C91.4191 124.903 91.5584 123.742 91.6048 122.952C91.6513 122.163 91.3958 121.025 90.8385 119.539C91.1172 119.353 91.5352 118.912 92.0925 118.215C92.6497 117.519 93.1142 117.031 93.4857 116.753C93.6714 116.66 93.8804 116.59 94.1126 116.544C94.3448 116.497 94.5538 116.497 94.7396 116.544C94.9254 116.59 95.1111 116.52 95.2969 116.335C95.4826 116.149 95.622 115.87 95.7148 115.499C95.622 115.406 95.4362 115.266 95.1576 115.081C94.8789 114.802 94.6931 114.663 94.6003 114.663C95.2504 114.941 96.574 114.872 98.571 114.454C100.568 114.036 101.845 114.105 102.402 114.663C103.796 115.684 104.817 115.592 105.467 114.384C105.467 114.291 105.351 113.85 105.119 113.061C104.887 112.271 104.864 111.644 105.049 111.18C105.514 113.688 106.861 114.105 109.09 112.434C109.368 112.712 110.088 112.944 111.249 113.13C112.41 113.316 113.223 113.548 113.688 113.827C113.966 114.013 114.291 114.268 114.663 114.593C115.034 114.918 115.29 115.127 115.429 115.22C115.568 115.313 115.801 115.29 116.126 115.15C116.451 115.011 116.845 114.709 117.31 114.245C118.239 115.545 118.796 116.66 118.982 117.589C120.003 121.304 120.886 123.347 121.629 123.719C122.279 123.997 122.79 124.09 123.161 123.997C123.533 123.905 123.742 123.463 123.788 122.674C123.835 121.884 123.835 121.234 123.788 120.723C123.742 120.212 123.672 119.632 123.579 118.982L123.44 117.867V115.359L123.301 114.245C121.908 113.966 121.048 113.409 120.723 112.573C120.398 111.737 120.468 110.878 120.932 109.995C121.397 109.113 122.093 108.254 123.022 107.418C123.115 107.325 123.487 107.163 124.137 106.93C124.787 106.698 125.507 106.396 126.296 106.025C127.086 105.653 127.666 105.282 128.038 104.91C129.988 103.145 130.685 101.52 130.128 100.034C130.778 100.034 131.289 99.6159 131.66 98.78C131.567 98.78 131.335 98.6406 130.964 98.362C130.592 98.0833 130.244 97.8511 129.919 97.6654C129.594 97.4796 129.385 97.3867 129.292 97.3867C130.128 96.9223 130.22 96.1793 129.57 95.1576C130.035 94.8789 130.383 94.3681 130.615 93.625C130.847 92.8819 131.196 92.4175 131.66 92.2318C132.496 93.3464 133.471 93.4392 134.586 92.5104C135.329 91.7674 135.375 91.0243 134.725 90.2813C135.19 89.6311 136.142 89.1434 137.581 88.8184C139.021 88.4933 139.88 88.0521 140.159 87.4948C140.809 87.6806 141.181 87.5877 141.273 87.2161C141.366 86.8446 141.413 86.2873 141.413 85.5443C141.413 84.8012 141.552 84.2439 141.831 83.8724C142.202 83.408 142.899 82.99 143.921 82.6185C144.942 82.247 145.546 82.0148 145.732 81.9219L148.1 80.3893C148.379 80.0178 148.379 79.832 148.1 79.832C149.772 80.0178 151.212 79.5069 152.419 78.2995C153.348 77.2778 153.069 76.349 151.583 75.513C151.862 74.9557 151.723 74.5145 151.165 74.1895C150.608 73.8644 149.911 73.6089 149.076 73.4232C149.354 73.3303 149.888 73.3071 150.678 73.3535C151.467 73.4 151.955 73.3303 152.141 73.1445C153.534 72.2157 153.209 71.4727 151.165 70.9154C149.586 70.451 147.589 71.0082 145.174 72.5872ZM122.465 194.773C141.599 191.43 157.899 182.652 171.367 168.441C171.089 168.163 170.508 167.954 169.626 167.814C168.743 167.675 168.163 167.513 167.884 167.327C166.212 166.677 165.098 166.305 164.54 166.212C164.633 165.562 164.517 164.958 164.192 164.401C163.867 163.844 163.495 163.426 163.077 163.147C162.66 162.868 162.079 162.497 161.336 162.033C160.593 161.568 160.082 161.243 159.803 161.057C159.618 160.872 159.293 160.593 158.828 160.221C158.364 159.85 158.039 159.594 157.853 159.455C157.667 159.316 157.319 159.107 156.808 158.828C156.297 158.549 155.902 158.457 155.624 158.549C155.345 158.642 154.881 158.689 154.23 158.689L153.813 158.828C153.534 158.921 153.278 159.037 153.046 159.176C152.814 159.316 152.559 159.455 152.28 159.594C152.001 159.734 151.816 159.873 151.723 160.012C151.63 160.152 151.63 160.268 151.723 160.361C149.772 158.782 148.1 157.76 146.707 157.296C146.243 157.203 145.732 156.947 145.174 156.529C144.617 156.111 144.13 155.786 143.712 155.554C143.294 155.322 142.829 155.252 142.318 155.345C141.808 155.438 141.273 155.763 140.716 156.32C140.252 156.785 139.973 157.481 139.88 158.41C139.787 159.339 139.694 159.943 139.602 160.221C138.951 159.757 138.951 158.944 139.602 157.783C140.252 156.622 140.345 155.763 139.88 155.206C139.602 154.648 139.114 154.439 138.417 154.579C137.721 154.718 137.163 154.927 136.745 155.206C136.327 155.484 135.793 155.879 135.143 156.39C134.493 156.901 134.075 157.203 133.889 157.296C133.704 157.388 133.309 157.644 132.705 158.062C132.101 158.48 131.707 158.828 131.521 159.107C131.242 159.478 130.964 160.036 130.685 160.779C130.406 161.522 130.174 162.033 129.988 162.311C129.803 161.94 129.268 161.638 128.386 161.406C127.504 161.173 127.063 160.918 127.063 160.639C127.248 161.568 127.434 163.194 127.62 165.516C127.806 167.838 128.038 169.602 128.316 170.81C128.967 173.689 128.409 175.918 126.645 177.497C124.137 179.819 122.79 181.677 122.604 183.07C122.233 185.114 122.79 186.321 124.276 186.693C124.276 187.343 123.905 188.295 123.161 189.549C122.418 190.803 122.093 191.801 122.186 192.544C122.186 193.102 122.279 193.845 122.465 194.773Z" fill="#2C946C"/>
</svg>
