<svg width="64" height="64" viewBox="0 0 64 64" fill="none" xmlns="http://www.w3.org/2000/svg">
<path d="M51.5227 14.832C51.1177 14.6225 50.7234 14.3929 50.3414 14.144C49.2311 13.4099 48.2132 12.5451 47.3094 11.568C45.0454 8.97867 44.2 6.352 43.8907 4.51467H43.9014C43.6427 2.98667 43.7494 2 43.768 2H33.4614V41.848C33.4614 42.3813 33.4614 42.912 33.44 43.4347C33.44 43.4987 33.432 43.5573 33.4294 43.6293C33.4294 43.656 33.4294 43.688 33.4214 43.7173V43.7413C33.3131 45.1707 32.8552 46.5516 32.088 47.7625C31.3207 48.9733 30.2676 49.9771 29.0214 50.6853C27.7212 51.425 26.2506 51.8129 24.7547 51.8107C19.9547 51.8107 16.0614 47.896 16.0614 43.0613C16.0614 38.224 19.9547 34.3093 24.7547 34.3093C25.664 34.3093 26.568 34.4533 27.432 34.736L27.4454 24.24C24.8214 23.9015 22.1558 24.1106 19.6167 24.8541C17.0776 25.5977 14.7202 26.8595 12.6934 28.56C10.917 30.1028 9.42346 31.9437 8.28003 34C7.84537 34.7493 6.2027 37.7653 6.00537 42.656C5.88003 45.4293 6.7147 48.3093 7.11203 49.496V49.5227C7.36003 50.2213 8.3307 52.6107 9.90937 54.624C11.1824 56.24 12.6866 57.6597 14.3734 58.8373V58.8107L14.3974 58.8373C19.384 62.224 24.9174 62.0027 24.9174 62.0027C25.8747 61.9627 29.0827 62.0027 32.7254 60.2773C36.7654 58.3627 39.064 55.512 39.064 55.512C40.5337 53.8083 41.7024 51.8668 42.52 49.7707C43.4534 47.3173 43.7627 44.3787 43.7627 43.2053V22.0613C43.888 22.136 45.5547 23.2373 45.5547 23.2373C45.5547 23.2373 47.9547 24.776 51.696 25.776C54.3787 26.488 57.9974 26.64 57.9974 26.64V16.408C56.7307 16.5467 54.1574 16.1467 51.52 14.8347" fill="white"/>
</svg>
