<svg width="40" height="40" viewBox="0 0 40 40" fill="none" xmlns="http://www.w3.org/2000/svg">
<rect width="40" height="40" rx="8" fill="white"/>
<path d="M20.5 6C17.83 6 15.2199 6.79176 12.9998 8.27516C10.7797 9.75856 9.04942 11.867 8.02763 14.3338C7.00585 16.8006 6.7385 19.515 7.2594 22.1337C7.78031 24.7525 9.06606 27.1579 10.9541 29.0459C12.8421 30.9339 15.2475 32.2197 17.8663 32.7406C20.485 33.2615 23.1994 32.9942 25.6662 31.9724C28.133 30.9506 30.2414 29.2203 31.7248 27.0002C33.2082 24.7801 34 22.17 34 19.5C33.9964 15.9207 32.573 12.489 30.042 9.958C27.511 7.42704 24.0793 6.00357 20.5 6ZM28.5177 16.4125V17.2846C28.5177 17.3514 28.5043 17.4175 28.4784 17.479C28.4524 17.5405 28.4144 17.5961 28.3666 17.6427C28.3188 17.6893 28.2621 17.7258 28.2 17.7501C28.1378 17.7744 28.0714 17.786 28.0047 17.7841C26.5793 17.6831 25.2158 17.1627 24.0856 16.2883V22.6711C24.0854 23.3776 23.9445 24.0769 23.671 24.7282C23.3974 25.3796 22.9969 25.9699 22.4926 26.4646C21.9838 26.9718 21.3793 27.3726 20.7141 27.6437C20.0489 27.9149 19.3364 28.051 18.6181 28.0441C17.1735 28.0416 15.7871 27.4748 14.7544 26.4646C14.0975 25.8023 13.6243 24.9804 13.3814 24.0797C13.1386 23.1791 13.1344 22.2307 13.3693 21.3279C13.584 20.4612 14.0173 19.6647 14.6289 19.0153C15.0849 18.4579 15.6598 18.0095 16.3115 17.7028C16.9632 17.3961 17.6751 17.2389 18.3954 17.2428H19.5024V19.5418C19.5028 19.6086 19.4891 19.6747 19.462 19.7358C19.4349 19.7968 19.3952 19.8514 19.3454 19.8958C19.2955 19.9403 19.2368 19.9736 19.1731 19.9936C19.1094 20.0135 19.0421 20.0197 18.9759 20.0116C18.3331 19.8186 17.6405 19.8826 17.0441 20.1903C16.4476 20.4979 15.9939 21.0251 15.7786 21.6607C15.5633 22.2964 15.6031 22.9908 15.8898 23.5976C16.1765 24.2044 16.6876 24.6762 17.3154 24.9135C17.6799 25.1227 18.0876 25.2456 18.5061 25.2739C18.8301 25.2874 19.1541 25.2469 19.4619 25.1497C19.9759 24.9767 20.4231 24.6475 20.7409 24.2079C21.0587 23.7684 21.2312 23.2405 21.2344 22.6981V11.0679C21.2342 11.0041 21.2466 10.941 21.2709 10.882C21.2952 10.8231 21.3309 10.7695 21.3759 10.7243C21.4209 10.6792 21.4744 10.6434 21.5333 10.6189C21.5922 10.5945 21.6553 10.5819 21.7191 10.5819H23.6293C23.7535 10.5817 23.8731 10.6293 23.9632 10.7147C24.0534 10.8001 24.1074 10.9169 24.114 11.0409C24.1838 11.6365 24.3731 12.2119 24.6705 12.7326C24.9678 13.2534 25.3672 13.7088 25.8447 14.0716C26.4901 14.5561 27.2566 14.8532 28.06 14.9302C28.1803 14.9405 28.2929 14.9941 28.3767 15.0809C28.4606 15.1678 28.5102 15.2821 28.5163 15.4027L28.5177 16.4125Z" fill="#2C946C"/>
</svg>
