<svg width="165" height="189" viewBox="0 0 165 189" fill="none" xmlns="http://www.w3.org/2000/svg">
<path d="M130.608 29.8675C123.459 21.706 119.519 11.2248 119.522 0.375H87.2062V130.058C86.957 137.076 83.9942 143.723 78.9417 148.6C73.8892 153.477 67.1414 156.203 60.1191 156.204C45.2683 156.204 32.9275 144.072 32.9275 129.012C32.9275 111.024 50.2883 97.5329 68.1721 103.076V70.0275C32.0908 65.2167 0.506653 93.245 0.506653 129.012C0.506653 163.839 29.3717 188.625 60.0146 188.625C92.8537 188.625 119.522 161.956 119.522 129.012V63.2296C132.627 72.6405 148.36 77.6898 164.493 77.6621V45.3458C164.493 45.3458 144.832 46.2871 130.608 29.8675Z" fill="white"/>
</svg>
