<svg width="64" height="64" viewBox="0 0 64 64" fill="none" xmlns="http://www.w3.org/2000/svg">
<mask id="mask0_378_671" style="mask-type:luminance" maskUnits="userSpaceOnUse" x="0" y="0" width="64" height="64">
<path d="M0 0H64V64H0V0Z" fill="white"/>
</mask>
<g mask="url(#mask0_378_671)">
<path d="M62.6667 17.352C62.3043 16.0593 61.5984 14.8889 60.6241 13.9653C59.6222 13.0133 58.3942 12.3324 57.0561 11.9867C52.0481 10.6667 31.9841 10.6667 31.9841 10.6667C23.6196 10.5715 15.2572 10.9901 6.94406 11.92C5.6059 12.2912 4.38023 12.9874 3.37606 13.9467C2.38939 14.896 1.67473 16.0667 1.30139 17.3493C0.404574 22.1807 -0.0311624 27.0863 5.89079e-05 32C-0.0319411 36.9093 0.402726 41.8133 1.30139 46.6507C1.66673 47.928 2.37873 49.0933 3.36806 50.0347C4.35739 50.976 5.58939 51.656 6.94406 52.016C12.0187 53.3333 31.9841 53.3333 31.9841 53.3333C40.3592 53.4286 48.7322 53.0101 57.0561 52.08C58.3942 51.7343 59.6222 51.0533 60.6241 50.1013C61.5981 49.1779 62.3032 48.0074 62.6641 46.7147C63.5843 41.8852 64.0317 36.9776 64.0001 32.0613C64.0693 27.1243 63.6224 22.1962 62.6667 17.352ZM25.6054 41.1307V22.872L42.2987 32.0027L25.6054 41.1307Z" fill="white"/>
</g>
</svg>
