<svg width="211" height="169" viewBox="0 0 211 169" fill="none" xmlns="http://www.w3.org/2000/svg">
<path d="M108.052 0.833374C113.637 0.864749 127.609 1.00071 142.46 1.59683L147.731 1.82691C162.676 2.52762 177.61 3.74079 185.025 5.80108C194.908 8.583 202.668 16.6778 205.293 26.9478C209.477 43.2628 210 75.0771 210.062 82.7849L210.073 84.3745V86.1943C210 93.9021 209.477 125.727 205.293 142.031C202.637 152.333 194.866 160.438 185.025 163.178C177.61 165.238 162.676 166.452 147.731 167.152L142.46 167.393C127.609 167.978 113.637 168.125 108.052 168.146L105.594 168.156H102.927C91.1093 168.083 41.6833 167.55 25.9539 163.178C16.0813 160.396 8.31073 152.301 5.68569 142.031C1.50235 125.716 0.979437 93.9021 0.916687 86.1943V82.7849C0.979437 75.0771 1.50235 43.2524 5.68569 26.9478C8.3421 16.6464 16.1126 8.54116 25.9644 5.81154C41.6833 1.4295 91.1198 0.896124 102.938 0.833374H108.052ZM84.5729 47.8959V121.104L147.323 84.5L84.5729 47.8959Z" fill="white"/>
</svg>
