<svg width="40" height="40" viewBox="0 0 40 40" fill="none" xmlns="http://www.w3.org/2000/svg">
<rect width="40" height="40" rx="8" fill="white"/>
<path fill-rule="evenodd" clip-rule="evenodd" d="M20.0002 9.33325C21.1402 9.33325 22.3095 9.36259 23.4429 9.41059L24.7815 9.47459L26.0629 9.55059L27.2629 9.63192L28.3589 9.71725C29.5483 9.80829 30.6675 10.3158 31.5196 11.1506C32.3717 11.9854 32.9021 13.094 33.0175 14.2813L33.0709 14.8479L33.1709 16.0613C33.2642 17.3186 33.3335 18.6893 33.3335 19.9999C33.3335 21.3106 33.2642 22.6813 33.1709 23.9386L33.0709 25.1519C33.0535 25.3466 33.0362 25.5346 33.0175 25.7186C32.9021 26.9061 32.3714 28.0148 31.5191 28.8496C30.6667 29.6844 29.5472 30.1918 28.3575 30.2826L27.2642 30.3666L26.0642 30.4493L24.7815 30.5253L23.4429 30.5893C22.296 30.6391 21.1482 30.6649 20.0002 30.6666C18.8522 30.6649 17.7044 30.6391 16.5575 30.5893L15.2189 30.5253L13.9375 30.4493L12.7375 30.3666L11.6415 30.2826C10.4521 30.1915 9.33294 29.684 8.48083 28.8492C7.62873 28.0144 7.0983 26.9059 6.98287 25.7186L6.92954 25.1519L6.82954 23.9386C6.72759 22.6281 6.67333 21.3143 6.66687 19.9999C6.66687 18.6893 6.7362 17.3186 6.82954 16.0613L6.92954 14.8479C6.94687 14.6533 6.9642 14.4653 6.98287 14.2813C7.09826 13.0942 7.62849 11.9858 8.48033 11.151C9.33216 10.3163 10.451 9.80859 11.6402 9.71725L12.7349 9.63192L13.9349 9.55059L15.2175 9.47459L16.5562 9.41059C17.7035 9.36076 18.8518 9.33498 20.0002 9.33325ZM17.3335 16.7666V23.2333C17.3335 23.8493 18.0002 24.2333 18.5335 23.9266L24.1335 20.6933C24.2554 20.6231 24.3566 20.5221 24.427 20.4004C24.4974 20.2786 24.5344 20.1405 24.5344 19.9999C24.5344 19.8593 24.4974 19.7212 24.427 19.5995C24.3566 19.4778 24.2554 19.3767 24.1335 19.3066L18.5335 16.0746C18.4119 16.0043 18.2739 15.9674 18.1334 15.9674C17.9929 15.9674 17.8549 16.0044 17.7333 16.0747C17.6117 16.145 17.5107 16.2461 17.4405 16.3677C17.3703 16.4894 17.3334 16.6274 17.3335 16.7679V16.7666Z" fill="#2C946C"/>
</svg>
